<?xml version="1.0" encoding="UTF-8" standalone="no"?>
<!DOCTYPE svg PUBLIC "-//W3C//DTD SVG 1.1//EN"
 "http://www.w3.org/Graphics/SVG/1.1/DTD/svg11.dtd">
<!-- Generated by graphviz version 2.38.0 (20140413.2041)
 -->
<!-- Title: G Pages: 1 -->
<svg width="1173pt" height="628pt"
 viewBox="0.00 0.00 1173.02 628.00" xmlns="http://www.w3.org/2000/svg" xmlns:xlink="http://www.w3.org/1999/xlink">
<g id="graph0" class="graph" transform="scale(1 1) rotate(0) translate(4 624)">
<title>G</title>
<polygon fill="white" stroke="none" points="-4,4 -4,-624 1169.02,-624 1169.02,4 -4,4"/>
<!-- aaaaaaaaa -->
<g id="node1" class="node"><title>aaaaaaaaa</title>
<ellipse fill="none" stroke="black" cx="411.422" cy="-267" rx="46.2923" ry="18"/>
<text text-anchor="middle" x="411.422" y="-263.3" font-family="Times New Roman,serif" font-size="14.00">aaaaaaaaa</text>
</g>
<!-- ccccccccc -->
<g id="node2" class="node"><title>ccccccccc</title>
<ellipse fill="none" stroke="black" cx="562.613" cy="-327" rx="50.0912" ry="18"/>
<text text-anchor="middle" x="562.613" y="-323.3" font-family="Times New Roman,serif" font-size="14.00">ccccccccc</text>
</g>
<!-- aaaaaaaaa&#45;&gt;ccccccccc -->
<g id="edge1" class="edge"><title>aaaaaaaaa&#45;&gt;ccccccccc</title>
<path fill="none" stroke="black" d="M444.061,-279.724C466.735,-288.843 497.44,-301.192 521.783,-310.981"/>
<polygon fill="black" stroke="black" points="521.059,-313.331 528.468,-313.67 522.888,-308.785 521.059,-313.331"/>
<text text-anchor="middle" x="485.067" y="-301" font-family="Times New Roman,serif" font-size="10.00">back</text>
</g>
<!-- ccccccccc&#45;&gt;aaaaaaaaa -->
<g id="edge4" class="edge"><title>ccccccccc&#45;&gt;aaaaaaaaa</title>
<path fill="none" stroke="black" d="M543.777,-310.094C531.069,-299.078 513.028,-285.419 494.567,-278 485.13,-274.207 474.641,-271.67 464.401,-269.985"/>
<polygon fill="black" stroke="black" points="464.65,-267.545 457.368,-268.949 463.936,-272.393 464.65,-267.545"/>
<text text-anchor="middle" x="485.067" y="-281" font-family="Times New Roman,serif" font-size="10.00">back</text>
</g>
<!-- bbbbbbbbb -->
<g id="node3" class="node"><title>bbbbbbbbb</title>
<ellipse fill="none" stroke="black" cx="722.254" cy="-340" rx="54.6905" ry="18"/>
<text text-anchor="middle" x="722.254" y="-336.3" font-family="Times New Roman,serif" font-size="14.00">bbbbbbbbb</text>
</g>
<!-- ccccccccc&#45;&gt;bbbbbbbbb -->
<g id="edge5" class="edge"><title>ccccccccc&#45;&gt;bbbbbbbbb</title>
<path fill="none" stroke="black" d="M606.388,-335.747C614.42,-337.079 622.771,-338.256 630.659,-339 640.236,-339.904 650.407,-340.433 660.342,-340.714"/>
<polygon fill="black" stroke="black" points="660.469,-343.168 667.523,-340.878 660.581,-338.269 660.469,-343.168"/>
<text text-anchor="middle" x="640.159" y="-343" font-family="Times New Roman,serif" font-size="10.00">back</text>
</g>
<!-- eeeeeeeee -->
<g id="node4" class="node"><title>eeeeeeeee</title>
<ellipse fill="none" stroke="black" cx="877.995" cy="-381" rx="46.2923" ry="18"/>
<text text-anchor="middle" x="877.995" y="-377.3" font-family="Times New Roman,serif" font-size="14.00">eeeeeeeee</text>
</g>
<!-- ccccccccc&#45;&gt;eeeeeeeee -->
<g id="edge7" class="edge"><title>ccccccccc&#45;&gt;eeeeeeeee</title>
<path fill="none" stroke="black" d="M595.119,-340.784C606.268,-345.494 618.948,-350.664 630.659,-355 699.819,-380.608 721.229,-374.636 794.849,-379 804.475,-379.571 814.744,-379.979 824.647,-380.272"/>
<polygon fill="black" stroke="black" points="824.714,-382.724 831.778,-380.465 824.846,-377.826 824.714,-382.724"/>
<text text-anchor="middle" x="722.254" y="-381" font-family="Times New Roman,serif" font-size="10.00">back</text>
</g>
<!-- ddddddddd -->
<g id="node5" class="node"><title>ddddddddd</title>
<ellipse fill="none" stroke="black" cx="722.254" cy="-131" rx="54.6905" ry="18"/>
<text text-anchor="middle" x="722.254" y="-127.3" font-family="Times New Roman,serif" font-size="14.00">ddddddddd</text>
</g>
<!-- ccccccccc&#45;&gt;ddddddddd -->
<g id="edge6" class="edge"><title>ccccccccc&#45;&gt;ddddddddd</title>
<path fill="none" stroke="black" d="M564.019,-308.885C565.956,-270.479 576.378,-180.967 630.659,-139 639.762,-131.962 651.024,-128.283 662.477,-126.62"/>
<polygon fill="black" stroke="black" points="662.927,-129.035 669.616,-125.834 662.39,-124.165 662.927,-129.035"/>
<text text-anchor="middle" x="640.159" y="-142" font-family="Times New Roman,serif" font-size="10.00">back</text>
</g>
<!-- ffffffffff -->
<g id="node6" class="node"><title>ffffffffff</title>
<ellipse fill="none" stroke="black" cx="1072.08" cy="-602" rx="40.0939" ry="18"/>
<text text-anchor="middle" x="1072.08" y="-598.3" font-family="Times New Roman,serif" font-size="14.00">ffffffffff</text>
</g>
<!-- ccccccccc&#45;&gt;ffffffffff -->
<g id="edge8" class="edge"><title>ccccccccc&#45;&gt;ffffffffff</title>
<path fill="none" stroke="black" d="M567.198,-345.007C576.131,-384.476 603.455,-478.179 667.659,-517 782.326,-586.334 945.029,-599.718 1024.19,-601.905"/>
<polygon fill="black" stroke="black" points="1024.53,-604.364 1031.58,-602.083 1024.65,-599.465 1024.53,-604.364"/>
<text text-anchor="middle" x="804.349" y="-577" font-family="Times New Roman,serif" font-size="10.00">back</text>
</g>
<!-- ooooooooooo -->
<g id="node7" class="node"><title>ooooooooooo</title>
<ellipse fill="none" stroke="black" cx="1072.08" cy="-409" rx="64.189" ry="18"/>
<text text-anchor="middle" x="1072.08" y="-405.3" font-family="Times New Roman,serif" font-size="14.00">ooooooooooo</text>
</g>
<!-- ccccccccc&#45;&gt;ooooooooooo -->
<g id="edge9" class="edge"><title>ccccccccc&#45;&gt;ooooooooooo</title>
<path fill="none" stroke="black" d="M577.793,-344.327C590.572,-359.229 610.411,-380.683 630.659,-396 645.566,-407.278 650.168,-409.405 667.659,-416 784.774,-460.16 817.772,-464.91 942.141,-479 950.531,-479.951 953.879,-483.311 961.141,-479 975.507,-470.472 966.658,-457.104 979.141,-446 989.968,-436.369 1003.62,-429.07 1017.07,-423.611"/>
<polygon fill="black" stroke="black" points="1017.99,-425.882 1023.64,-421.078 1016.23,-421.31 1017.99,-425.882"/>
<text text-anchor="middle" x="804.349" y="-464" font-family="Times New Roman,serif" font-size="10.00">back</text>
</g>
<!-- zzzzzzzzzz -->
<g id="node8" class="node"><title>zzzzzzzzzz</title>
<ellipse fill="none" stroke="black" cx="1072.08" cy="-343" rx="50.0912" ry="18"/>
<text text-anchor="middle" x="1072.08" y="-339.3" font-family="Times New Roman,serif" font-size="14.00">zzzzzzzzzz</text>
</g>
<!-- ccccccccc&#45;&gt;zzzzzzzzzz -->
<g id="edge10" class="edge"><title>ccccccccc&#45;&gt;zzzzzzzzzz</title>
<path fill="none" stroke="black" d="M608.548,-319.617C626.831,-316.963 648.2,-314.303 667.659,-313 793.925,-304.543 942.307,-322.854 1019.12,-334.44"/>
<polygon fill="black" stroke="black" points="1019.03,-336.906 1026.32,-335.539 1019.77,-332.062 1019.03,-336.906"/>
<text text-anchor="middle" x="804.349" y="-315" font-family="Times New Roman,serif" font-size="10.00">back</text>
</g>
<!-- ppppppppppppp -->
<g id="node9" class="node"><title>ppppppppppppp</title>
<ellipse fill="none" stroke="black" cx="1072.08" cy="-180" rx="74.187" ry="18"/>
<text text-anchor="middle" x="1072.08" y="-176.3" font-family="Times New Roman,serif" font-size="14.00">ppppppppppppp</text>
</g>
<!-- ccccccccc&#45;&gt;ppppppppppppp -->
<g id="edge11" class="edge"><title>ccccccccc&#45;&gt;ppppppppppppp</title>
<path fill="none" stroke="black" d="M581.617,-310.013C601.23,-292.483 634.286,-265.688 667.659,-251 773.439,-204.444 907.494,-188.385 991.296,-182.864"/>
<polygon fill="black" stroke="black" points="991.663,-185.296 998.494,-182.408 991.353,-180.406 991.663,-185.296"/>
<text text-anchor="middle" x="804.349" y="-212" font-family="Times New Roman,serif" font-size="10.00">back</text>
</g>
<!-- nnnnnnnnnnn -->
<g id="node10" class="node"><title>nnnnnnnnnnn</title>
<ellipse fill="none" stroke="black" cx="1072.08" cy="-541" rx="59.2899" ry="18"/>
<text text-anchor="middle" x="1072.08" y="-537.3" font-family="Times New Roman,serif" font-size="14.00">nnnnnnnnnnn</text>
</g>
<!-- ccccccccc&#45;&gt;nnnnnnnnnnn -->
<g id="edge12" class="edge"><title>ccccccccc&#45;&gt;nnnnnnnnnnn</title>
<path fill="none" stroke="black" d="M569.533,-344.979C581.751,-378.854 613.267,-451.549 667.659,-483 774.796,-544.95 923.848,-549.323 1007.53,-545.877"/>
<polygon fill="black" stroke="black" points="1007.8,-548.318 1014.68,-545.557 1007.58,-543.423 1007.8,-548.318"/>
<text text-anchor="middle" x="804.349" y="-536" font-family="Times New Roman,serif" font-size="10.00">back</text>
</g>
<!-- wwwwwwwwwwwww -->
<g id="node11" class="node"><title>wwwwwwwwwwwww</title>
<ellipse fill="none" stroke="black" cx="1072.08" cy="-473" rx="92.8835" ry="18"/>
<text text-anchor="middle" x="1072.08" y="-469.3" font-family="Times New Roman,serif" font-size="14.00">wwwwwwwwwwwww</text>
</g>
<!-- ccccccccc&#45;&gt;wwwwwwwwwwwww -->
<g id="edge13" class="edge"><title>ccccccccc&#45;&gt;wwwwwwwwwwwww</title>
<path fill="none" stroke="black" d="M572.861,-344.907C588.277,-372.636 622.091,-425.146 667.659,-448 785.616,-507.159 829.714,-504.857 961.141,-493 974.468,-491.798 988.595,-489.791 1002.12,-487.501"/>
<polygon fill="black" stroke="black" points="1002.66,-489.895 1009.14,-486.281 1001.82,-485.068 1002.66,-489.895"/>
<text text-anchor="middle" x="804.349" y="-500" font-family="Times New Roman,serif" font-size="10.00">back</text>
</g>
<!-- lllllllllll -->
<g id="node12" class="node"><title>lllllllllll</title>
<ellipse fill="none" stroke="black" cx="1072.08" cy="-267" rx="32.4942" ry="18"/>
<text text-anchor="middle" x="1072.08" y="-263.3" font-family="Times New Roman,serif" font-size="14.00">lllllllllll</text>
</g>
<!-- ccccccccc&#45;&gt;lllllllllll -->
<g id="edge14" class="edge"><title>ccccccccc&#45;&gt;lllllllllll</title>
<path fill="none" stroke="black" d="M597.371,-313.917C662.704,-289.377 811.518,-237.27 942.141,-219 979.433,-213.784 1019.69,-233.193 1045.12,-248.877"/>
<polygon fill="black" stroke="black" points="1044.03,-251.088 1051.26,-252.768 1046.66,-246.95 1044.03,-251.088"/>
<text text-anchor="middle" x="804.349" y="-252" font-family="Times New Roman,serif" font-size="10.00">back</text>
</g>
<!-- bbbbbbbbb&#45;&gt;ccccccccc -->
<g id="edge2" class="edge"><title>bbbbbbbbb&#45;&gt;ccccccccc</title>
<path fill="none" stroke="black" d="M674.403,-331.083C666.185,-329.824 657.693,-328.716 649.659,-328 640.079,-327.147 629.877,-326.659 619.97,-326.408"/>
<polygon fill="black" stroke="black" points="619.869,-323.955 612.822,-326.264 619.771,-328.854 619.869,-323.955"/>
<text text-anchor="middle" x="640.159" y="-331" font-family="Times New Roman,serif" font-size="10.00">back</text>
</g>
<!-- bbbbbbbbb&#45;&gt;eeeeeeeee -->
<g id="edge3" class="edge"><title>bbbbbbbbb&#45;&gt;eeeeeeeee</title>
<path fill="none" stroke="black" d="M765.264,-351.203C786.112,-356.763 811.3,-363.48 832.479,-369.128"/>
<polygon fill="black" stroke="black" points="832.101,-371.563 839.496,-371 833.364,-366.829 832.101,-371.563"/>
<text text-anchor="middle" x="804.349" y="-367" font-family="Times New Roman,serif" font-size="10.00">back</text>
</g>
<!-- eeeeeeeee&#45;&gt;ccccccccc -->
<g id="edge17" class="edge"><title>eeeeeeeee&#45;&gt;ccccccccc</title>
<path fill="none" stroke="black" d="M838.073,-390.361C795.483,-398.972 725.557,-408.286 667.659,-393 637.351,-384.999 607.65,-364.533 587.791,-348.493"/>
<polygon fill="black" stroke="black" points="589.166,-346.452 582.207,-343.889 586.049,-350.233 589.166,-346.452"/>
<text text-anchor="middle" x="722.254" y="-404" font-family="Times New Roman,serif" font-size="10.00">back</text>
</g>
<!-- eeeeeeeee&#45;&gt;bbbbbbbbb -->
<g id="edge18" class="edge"><title>eeeeeeeee&#45;&gt;bbbbbbbbb</title>
<path fill="none" stroke="black" d="M855.71,-365C844.001,-357.139 828.838,-348.425 813.849,-344 804.28,-341.175 793.896,-339.503 783.688,-338.588"/>
<polygon fill="black" stroke="black" points="783.822,-336.141 776.661,-338.069 783.462,-341.028 783.822,-336.141"/>
<text text-anchor="middle" x="804.349" y="-347" font-family="Times New Roman,serif" font-size="10.00">back</text>
</g>
<!-- eeeeeeeee&#45;&gt;ffffffffff -->
<g id="edge20" class="edge"><title>eeeeeeeee&#45;&gt;ffffffffff</title>
<path fill="none" stroke="black" d="M883.867,-398.906C894.773,-435.727 924.576,-520.464 979.141,-568 992.839,-579.934 1011.1,-587.827 1027.74,-592.974"/>
<polygon fill="black" stroke="black" points="1027.34,-595.411 1034.75,-595.016 1028.71,-590.707 1027.34,-595.411"/>
<text text-anchor="middle" x="951.641" y="-550" font-family="Times New Roman,serif" font-size="10.00">back</text>
</g>
<!-- eeeeeeeee&#45;&gt;ooooooooooo -->
<g id="edge21" class="edge"><title>eeeeeeeee&#45;&gt;ooooooooooo</title>
<path fill="none" stroke="black" d="M921.625,-387.214C946.895,-390.898 979.398,-395.635 1007.64,-399.751"/>
<polygon fill="black" stroke="black" points="1007.44,-402.198 1014.72,-400.784 1008.14,-397.349 1007.44,-402.198"/>
<text text-anchor="middle" x="951.641" y="-395" font-family="Times New Roman,serif" font-size="10.00">back</text>
</g>
<!-- eeeeeeeee&#45;&gt;zzzzzzzzzz -->
<g id="edge22" class="edge"><title>eeeeeeeee&#45;&gt;zzzzzzzzzz</title>
<path fill="none" stroke="black" d="M919.732,-372.941C949.218,-367.108 989.256,-359.187 1020.75,-352.958"/>
<polygon fill="black" stroke="black" points="1021.34,-355.337 1027.73,-351.575 1020.39,-350.53 1021.34,-355.337"/>
<text text-anchor="middle" x="951.641" y="-370" font-family="Times New Roman,serif" font-size="10.00">back</text>
</g>
<!-- eeeeeeeee&#45;&gt;ppppppppppppp -->
<g id="edge23" class="edge"><title>eeeeeeeee&#45;&gt;ppppppppppppp</title>
<path fill="none" stroke="black" d="M888.591,-363.362C904.63,-334.988 939.097,-278.497 979.141,-240 995.294,-224.47 1016,-210.551 1033.67,-200.037"/>
<polygon fill="black" stroke="black" points="1035.22,-201.968 1040.03,-196.321 1032.75,-197.738 1035.22,-201.968"/>
<text text-anchor="middle" x="951.641" y="-281" font-family="Times New Roman,serif" font-size="10.00">back</text>
</g>
<!-- eeeeeeeee&#45;&gt;nnnnnnnnnnn -->
<g id="edge24" class="edge"><title>eeeeeeeee&#45;&gt;nnnnnnnnnnn</title>
<path fill="none" stroke="black" d="M889.967,-398.507C906.575,-423.811 940.312,-470.766 979.141,-500 992.824,-510.302 1009.5,-518.725 1024.88,-525.198"/>
<polygon fill="black" stroke="black" points="1023.97,-527.473 1031.38,-527.852 1025.83,-522.937 1023.97,-527.473"/>
<text text-anchor="middle" x="951.641" y="-486" font-family="Times New Roman,serif" font-size="10.00">back</text>
</g>
<!-- eeeeeeeee&#45;&gt;wwwwwwwwwwwww -->
<g id="edge25" class="edge"><title>eeeeeeeee&#45;&gt;wwwwwwwwwwwww</title>
<path fill="none" stroke="black" d="M904.079,-395.87C924.076,-407.456 952.969,-423.601 979.141,-436 992.771,-442.457 1007.85,-448.83 1021.78,-454.42"/>
<polygon fill="black" stroke="black" points="1021.11,-456.789 1028.52,-457.098 1022.92,-452.235 1021.11,-456.789"/>
<text text-anchor="middle" x="951.641" y="-429" font-family="Times New Roman,serif" font-size="10.00">back</text>
</g>
<!-- eeeeeeeee&#45;&gt;lllllllllll -->
<g id="edge26" class="edge"><title>eeeeeeeee&#45;&gt;lllllllllll</title>
<path fill="none" stroke="black" d="M901.712,-365.455C921.784,-351.915 952,-332 979.141,-316 999.401,-304.056 1022.8,-291.603 1040.92,-282.241"/>
<polygon fill="black" stroke="black" points="1042.24,-284.318 1047.35,-278.938 1040,-279.961 1042.24,-284.318"/>
<text text-anchor="middle" x="951.641" y="-341" font-family="Times New Roman,serif" font-size="10.00">back</text>
</g>
<!-- iiiiiiiii -->
<g id="node13" class="node"><title>iiiiiiiii</title>
<ellipse fill="none" stroke="black" cx="1072.08" cy="-126" rx="28.6953" ry="18"/>
<text text-anchor="middle" x="1072.08" y="-122.3" font-family="Times New Roman,serif" font-size="14.00">iiiiiiiii</text>
</g>
<!-- eeeeeeeee&#45;&gt;iiiiiiiii -->
<g id="edge19" class="edge"><title>eeeeeeeee&#45;&gt;iiiiiiiii</title>
<path fill="none" stroke="black" d="M881.674,-362.863C889,-319.824 913.396,-210.812 979.141,-153 994.912,-139.131 1017.49,-132.375 1036.32,-129.089"/>
<polygon fill="black" stroke="black" points="1037.06,-131.454 1043.6,-127.955 1036.3,-126.612 1037.06,-131.454"/>
<text text-anchor="middle" x="951.641" y="-196" font-family="Times New Roman,serif" font-size="10.00">back</text>
</g>
<!-- ddddddddd&#45;&gt;ccccccccc -->
<g id="edge15" class="edge"><title>ddddddddd&#45;&gt;ccccccccc</title>
<path fill="none" stroke="black" d="M680.386,-142.732C663.262,-149.335 644.226,-159.11 630.659,-173 594.856,-209.653 576.616,-268.541 568.696,-301.874"/>
<polygon fill="black" stroke="black" points="566.244,-301.608 567.073,-308.978 571.021,-302.699 566.244,-301.608"/>
<text text-anchor="middle" x="640.159" y="-176" font-family="Times New Roman,serif" font-size="10.00">back</text>
</g>
<!-- ddddddddd&#45;&gt;iiiiiiiii -->
<g id="edge16" class="edge"><title>ddddddddd&#45;&gt;iiiiiiiii</title>
<path fill="none" stroke="black" d="M776.84,-130.23C848.989,-129.193 975.331,-127.376 1036.27,-126.5"/>
<polygon fill="black" stroke="black" points="1036.4,-128.949 1043.36,-126.398 1036.33,-124.049 1036.4,-128.949"/>
<text text-anchor="middle" x="877.995" y="-133" font-family="Times New Roman,serif" font-size="10.00">back</text>
</g>
<!-- ggggggggg -->
<g id="node14" class="node"><title>ggggggggg</title>
<ellipse fill="none" stroke="black" cx="205.137" cy="-168" rx="50.0912" ry="18"/>
<text text-anchor="middle" x="205.137" y="-164.3" font-family="Times New Roman,serif" font-size="14.00">ggggggggg</text>
</g>
<!-- ggggggggg&#45;&gt;aaaaaaaaa -->
<g id="edge28" class="edge"><title>ggggggggg&#45;&gt;aaaaaaaaa</title>
<path fill="none" stroke="black" d="M235.841,-182.395C272.768,-200.291 335.719,-230.798 375.085,-249.875"/>
<polygon fill="black" stroke="black" points="374.303,-252.219 381.671,-253.067 376.44,-247.809 374.303,-252.219"/>
<text text-anchor="middle" x="310.229" y="-237" font-family="Times New Roman,serif" font-size="10.00">back</text>
</g>
<!-- ggggggggg&#45;&gt;ccccccccc -->
<g id="edge27" class="edge"><title>ggggggggg&#45;&gt;ccccccccc</title>
<path fill="none" stroke="black" d="M217.443,-185.674C229.525,-203.469 250.09,-230.819 273.182,-249 341.077,-302.453 442.739,-319.368 505.475,-324.663"/>
<polygon fill="black" stroke="black" points="505.379,-327.113 512.551,-325.225 505.767,-322.229 505.379,-327.113"/>
<text text-anchor="middle" x="411.422" y="-321" font-family="Times New Roman,serif" font-size="10.00">back</text>
</g>
<!-- ggggggggg&#45;&gt;ddddddddd -->
<g id="edge29" class="edge"><title>ggggggggg&#45;&gt;ddddddddd</title>
<path fill="none" stroke="black" d="M252.511,-161.899C330.444,-151.987 492.702,-132.808 630.659,-126 640.885,-125.495 651.759,-125.569 662.292,-125.961"/>
<polygon fill="black" stroke="black" points="662.417,-128.418 669.518,-126.279 662.633,-123.523 662.417,-128.418"/>
<text text-anchor="middle" x="485.067" y="-141" font-family="Times New Roman,serif" font-size="10.00">back</text>
</g>
<!-- kkkkkkkkk -->
<g id="node15" class="node"><title>kkkkkkkkk</title>
<ellipse fill="none" stroke="black" cx="50.0456" cy="-80" rx="50.0912" ry="18"/>
<text text-anchor="middle" x="50.0456" y="-76.3" font-family="Times New Roman,serif" font-size="14.00">kkkkkkkkk</text>
</g>
<!-- kkkkkkkkk&#45;&gt;ppppppppppppp -->
<g id="edge32" class="edge"><title>kkkkkkkkk&#45;&gt;ppppppppppppp</title>
<path fill="none" stroke="black" d="M100.342,-80C130.347,-80 169.452,-80 204.137,-80 204.137,-80 204.137,-80 805.349,-80 889.127,-80 901.285,-122.06 979.141,-153 990.126,-157.366 1002.1,-161.388 1013.66,-164.921"/>
<polygon fill="black" stroke="black" points="1013,-167.281 1020.41,-166.943 1014.41,-162.587 1013,-167.281"/>
<text text-anchor="middle" x="562.613" y="-83" font-family="Times New Roman,serif" font-size="10.00">back</text>
</g>
<!-- kkkkkkkkk&#45;&gt;ggggggggg -->
<g id="edge31" class="edge"><title>kkkkkkkkk&#45;&gt;ggggggggg</title>
<path fill="none" stroke="black" d="M77.3629,-95.1277C103.432,-110.113 143.417,-133.097 171.495,-149.237"/>
<polygon fill="black" stroke="black" points="170.361,-151.411 177.65,-152.775 172.803,-147.163 170.361,-151.411"/>
<text text-anchor="middle" x="127.591" y="-133" font-family="Times New Roman,serif" font-size="10.00">back</text>
</g>
<!-- fffffffff -->
<g id="node16" class="node"><title>fffffffff</title>
<ellipse fill="none" stroke="black" cx="310.229" cy="-18" rx="37.0935" ry="18"/>
<text text-anchor="middle" x="310.229" y="-14.3" font-family="Times New Roman,serif" font-size="14.00">fffffffff</text>
</g>
<!-- kkkkkkkkk&#45;&gt;fffffffff -->
<g id="edge30" class="edge"><title>kkkkkkkkk&#45;&gt;fffffffff</title>
<path fill="none" stroke="black" d="M83.7642,-66.5631C94.568,-62.4603 106.73,-58.194 118.091,-55 168.633,-40.7907 228.211,-30.2028 267.252,-24.0729"/>
<polygon fill="black" stroke="black" points="267.754,-26.4744 274.296,-22.9803 267.003,-21.6323 267.754,-26.4744"/>
<text text-anchor="middle" x="127.591" y="-58" font-family="Times New Roman,serif" font-size="10.00">back</text>
</g>
<!-- fffffffff&#45;&gt;iiiiiiiii -->
<g id="edge33" class="edge"><title>fffffffff&#45;&gt;iiiiiiiii</title>
<path fill="none" stroke="black" d="M346.957,-20.6195C381.892,-22.9526 436.606,-26 484.067,-26 484.067,-26 484.067,-26 878.995,-26 947.944,-26 1016.68,-77.3185 1050.13,-106.43"/>
<polygon fill="black" stroke="black" points="1048.71,-108.442 1055.57,-111.245 1051.95,-104.772 1048.71,-108.442"/>
<text text-anchor="middle" x="640.159" y="-29" font-family="Times New Roman,serif" font-size="10.00">back</text>
</g>
<!-- fffffffff&#45;&gt;fffffffff -->
<g id="edge34" class="edge"><title>fffffffff&#45;&gt;fffffffff</title>
<path fill="none" stroke="black" d="M292.802,-34.2903C288.6,-44.3892 294.409,-54 310.229,-54 322.341,-54 328.585,-48.3663 328.961,-41.1932"/>
<polygon fill="black" stroke="black" points="331.364,-40.7133 327.656,-34.2903 326.549,-41.6236 331.364,-40.7133"/>
<text text-anchor="middle" x="310.229" y="-57" font-family="Times New Roman,serif" font-size="10.00">back</text>
</g>
</g>
</svg>
